# xmcd
#
# Track frame offsets: 
#        150
#        13467
#        25877
#        37922
#        51520
#        64280
#        74240
#        84702
#        97495
#        108905
#        123370
#        135150
#        145507
#        158882
#        168832
#        180412
#        194162
#        208272
#        221702
#        233792
#        246760
#        259972
#        271967
#        285940
#        296407
#        308670
#        321980
#        332945
#        346250
#
# Disc length: 4767 seconds
#
# Revision: 2
# Processed by: cddbd v1.5.2PL0 Copyright (c) Steve Scherf et al.
# Submitted via: ExactAudioCopyFreeDBPlugin 1.0
#
DISCID=c7129d1d
DTITLE=Various Artist - Blowing the Fuse:  459 R&B Classics, 1945-196
DTITLE=0 [Bear Family]
DYEAR=1953
DGENRE=Rhythm and Blues
TTITLE0=Ruth Brown - Mama, He Treats Your Daughter Mean
TTITLE1=The "5" Royales - Baby Don't Do It
TTITLE2=Big Maybelle - Gabbin' Blues
TTITLE3=Earl Forest - Whoopin' and Hollerin'
TTITLE4=Willie Mae "Big Mama" Thornton - Hound Dog
TTITLE5=Bull Moose Jackson - Big Ten-Inch Record
TTITLE6=Shirley and Lee - I'm Gone
TTITLE7=B.B. King and His Orchestra - Please Love Me
TTITLE8=Tiny Bradshaw - Soft
TTITLE9=Jesse and Marvin - Dream Girl
TTITLE10=Willie Mabon and His Combo - I'm Mad
TTITLE11=The Du Droppers - I Wanna Know
TTITLE12=Johnny Ace - The Clock
TTITLE13=The Royals - Get It
TTITLE14=Fats Domino - Please Don't Leave Me
TTITLE15=The Orioles - Crying in the Chapel
TTITLE16=Buddy and Ella Johnson - Hittin' on Me
TTITLE17=The Clovers - Good Lovin'
TTITLE18=Ray Charles - Mess Around
TTITLE19=Faye Adams - Shake a Hand
TTITLE20=Amos Milburn - One Scotch, One Bourbon, One Beer
TTITLE21=Joe Turner - Honey Hush
TTITLE22=Little Walter - Blues with a Feeling
TTITLE23=The Four Tunes - Marie
TTITLE24=Joe Morris Orchestra - I Had a Notion
TTITLE25=Little Junior's Blue Flames - Feelin' Good
TTITLE26=Dinah Washington - T.V. is the Thing (This Year)
TTITLE27=Clyde McPhatter and The Drifters - Money Honey
TTITLE28=Jimmy Liggins - Drunk
EXTD=
EXTT0=
EXTT1=
EXTT2=
EXTT3=
EXTT4=
EXTT5=
EXTT6=
EXTT7=
EXTT8=
EXTT9=
EXTT10=
EXTT11=
EXTT12=
EXTT13=
EXTT14=
EXTT15=
EXTT16=
EXTT17=
EXTT18=
EXTT19=
EXTT20=
EXTT21=
EXTT22=
EXTT23=
EXTT24=
EXTT25=
EXTT26=
EXTT27=
EXTT28=
PLAYORDER=
